<svg width="185" height="90" viewBox="0 0 185 90" fill="none" xmlns="http://www.w3.org/2000/svg">
<path d="M98.8022 31.9184L91.0841 34.7672V38.837L104.303 33.5463V30.2905L91.0841 24.9998V28.9881L98.8022 31.9184Z" fill="#162120"/>
<path fill-rule="evenodd" clip-rule="evenodd" d="M13 54.6278C13 57.7208 15.299 59.1045 18.0907 59.1045C20.1434 59.1045 21.5392 58.1278 22.3603 56.9882V58.7789H26.5478V48.5231C26.5478 44.6975 23.8382 43.151 20.1434 43.151C16.5306 43.151 13.8211 44.7789 13.4926 48.1975H17.598C17.6801 47.058 18.4191 46.244 19.8971 46.244C21.5392 46.244 22.1961 47.1394 22.1961 48.6859V49.4185H20.3076C16.2843 49.4185 13 50.7208 13 54.465V54.6278ZM22.1961 52.2673V53.7324C22.1961 55.2789 20.8824 56.0929 19.4044 56.1743C17.9265 56.1743 17.2696 55.4417 17.2696 54.3836V54.2208C17.2696 52.8371 18.337 52.2673 20.4718 52.2673H22.1961Z" fill="#162120"/>
<path d="M28.9289 51.2906C28.9289 56.4999 32.049 59.1045 36.3186 59.1045C40.5061 59.1045 42.8873 56.6626 43.1336 53.0812H39.1924C38.9461 54.7905 37.8787 55.8487 36.4007 55.8487C34.4301 55.8487 33.2806 54.465 33.2806 51.3719V50.8836C33.2806 47.8719 34.5944 46.4068 36.4007 46.4068C37.8787 46.4068 38.6998 47.3836 38.9461 48.8487H43.0515C42.723 44.8603 39.8493 43.0696 36.3186 43.0696C32.2132 43.0696 28.9289 45.8371 28.9289 51.0464V51.2906Z" fill="#162120"/>
<path d="M45.0221 51.2906C45.0221 56.4999 48.1422 59.1045 52.4118 59.1045C56.5993 59.1045 58.9804 56.6626 59.2267 53.0812H55.2855C55.0392 54.7905 53.9718 55.8487 52.4939 55.8487C50.5233 55.8487 49.3738 54.465 49.3738 51.3719V50.8836C49.3738 47.8719 50.6875 46.4068 52.4939 46.4068C53.9718 46.4068 54.7929 47.3836 55.0392 48.8487H59.1446C58.8162 44.8603 55.9424 43.0696 52.4118 43.0696C48.3064 43.0696 45.0221 45.8371 45.0221 51.0464V51.2906Z" fill="#162120"/>
<path fill-rule="evenodd" clip-rule="evenodd" d="M61.1152 51.3719C61.1152 56.4999 64.1532 59.1045 68.587 59.1045C72.6103 59.1045 75.0735 56.9068 75.5662 54.058H71.5429C71.2145 55.1161 70.3113 56.0115 68.6691 56.0115C66.8628 56.0115 65.6311 54.9533 65.4669 52.1859H75.5662V50.3138C75.5662 45.1859 72.364 43.0696 68.5049 43.0696C64.3174 43.0696 61.1152 45.9185 61.1152 51.0464V51.3719ZM71.2966 49.3371H65.549C65.8775 46.8952 67.1091 46.1626 68.4228 46.0812C70.1471 46.0812 71.2145 47.058 71.2966 49.3371Z" fill="#162120"/>
<path d="M82.5453 43.4766H78.1936V58.7789H82.5453V49.4185C82.5453 47.465 83.777 46.5696 85.2549 46.5696C86.815 46.5696 87.5539 47.3836 87.5539 49.1743V58.7789H91.9056V48.5231C91.9056 44.8603 90.0172 43.151 87.2255 43.151C84.8444 43.151 83.2843 44.2906 82.5453 45.7557V43.4766Z" fill="#162120"/>
<path d="M99.8701 43.4766V38.8371L95.5184 40.6278V43.4766H93.712V46.651H95.5184V54.3836C95.5184 57.4766 97.0784 59.0231 100.445 59.0231C101.512 59.0231 102.415 58.8603 102.908 58.6975V55.3603C102.498 55.5231 102.087 55.6045 101.43 55.6045C100.363 55.6045 99.8701 55.0347 99.8701 53.8952V46.651H102.826V43.4766H99.8701Z" fill="#162120"/>
<path d="M114.814 58.7789H119.083V43.4766H114.732V52.9999C114.732 54.8719 113.5 55.8487 112.022 55.8487C110.544 55.8487 109.805 55.0347 109.805 53.244V43.4766H105.453V53.8138C105.453 57.3952 107.506 59.1045 110.298 59.1045C112.597 59.1045 114.075 57.965 114.814 56.4999V58.7789Z" fill="#162120"/>
<path d="M126.637 43.4766H122.286V58.8603H126.637V50.965C126.637 48.4417 128.362 47.5464 131.317 47.5464V43.3138C129.018 43.3138 127.54 44.2905 126.637 46.3254V43.4766Z" fill="#162120"/>
<path fill-rule="evenodd" clip-rule="evenodd" d="M132.631 51.3719C132.631 56.4999 135.669 59.1045 140.103 59.1045C144.126 59.1045 146.507 56.9068 147.164 54.058H143.141C142.813 55.1161 141.909 56.0115 140.267 56.0115C138.461 56.0115 137.229 54.9533 137.065 52.1859H147.082V50.3138C147.082 45.1859 143.88 43.0696 140.021 43.0696C135.833 43.0696 132.631 45.9185 132.631 51.0464V51.3719ZM142.813 49.3371H136.983C137.393 46.8952 138.625 46.1626 139.939 46.0812C141.663 46.0812 142.73 47.058 142.813 49.3371Z" fill="#162120"/>
</svg>
