<svg width="210" height="90" viewBox="0 0 210 90" fill="none" xmlns="http://www.w3.org/2000/svg">
<path d="M80.8013 35.2024V52.2991H78.0664V35.2024H80.8013Z" fill="#162120"/>
<path d="M130.077 45.2336V52.2991H127.342V45.6903C127.321 43.9371 126.113 42.84 124.586 42.84C123.058 42.84 121.872 44.0473 121.851 45.6221V52.2991H119.116V45.6903C119.116 43.9108 117.93 42.84 116.36 42.84C114.791 42.84 113.625 44.0945 113.625 45.7113V52.2991H110.891V40.5356H113.625V41.9004C114.513 40.8505 115.793 40.3046 117.111 40.3046C118.707 40.3046 120.166 41.0132 121.032 42.3098C121.987 41.0132 123.515 40.3046 125.137 40.3046C127.804 40.3046 130.061 42.1261 130.082 45.2284L130.077 45.2336Z" fill="#162120"/>
<path d="M139.051 40.3098V43.2074C136.405 43.0237 135.083 44.3937 135.083 46.1942V52.3043H132.348V40.5408H135.083V42.2048C136.064 40.9712 137.523 40.3098 139.051 40.3098Z" fill="#162120"/>
<path d="M151.458 47.4016H142.203C142.565 48.9501 143.846 50.0892 145.715 50.0892C147.106 50.0892 148.266 49.496 148.996 48.1994L151.274 49.1548C150.25 51.2072 148.266 52.5301 145.846 52.5301C142.109 52.5301 139.531 49.8162 139.531 46.4199C139.531 43.0237 142.082 40.3098 145.615 40.3098C149.148 40.3098 152.135 43.1129 151.452 47.4016H151.458ZM142.224 45.3281H148.996C148.675 43.8688 147.263 42.7507 145.689 42.7507C143.935 42.7507 142.66 43.8216 142.224 45.3281Z" fill="#162120"/>
<path d="M165.313 52.3043H162.578V50.7296C161.623 51.8896 160.231 52.5301 158.636 52.5301C155.355 52.5301 152.914 50.0209 152.914 46.4199C152.914 42.819 155.355 40.3098 158.636 40.3098C160.231 40.3098 161.623 40.9503 162.578 42.1103V40.5356H165.313V52.3043ZM162.573 46.4199C162.573 44.4147 161.113 42.798 159.108 42.798C157.103 42.798 155.691 44.4147 155.691 46.4199C155.691 48.4252 157.103 50.0472 159.108 50.0472C161.113 50.0472 162.573 48.4304 162.573 46.4199Z" fill="#162120"/>
<path d="M167.223 46.4199C167.223 43.0237 169.774 40.3098 173.286 40.3098C175.973 40.3098 178.094 41.8374 179.007 44.0735L176.477 44.9397C175.905 43.7061 174.724 42.8452 173.354 42.8452C171.301 42.8452 169.958 44.441 169.958 46.4252C169.958 48.4094 171.506 50.0052 173.375 50.0052C174.787 50.0052 175.994 49.0918 176.566 47.769L179.028 48.7244C178.141 50.9605 176.02 52.5301 173.307 52.5301C169.727 52.5301 167.223 49.8162 167.223 46.4199Z" fill="#162120"/>
<path d="M192.088 45.4856V52.2991H189.353V45.916C189.353 43.9791 188.01 42.84 186.346 42.84C184.682 42.84 183.317 44.1418 183.317 45.9633V52.2991H180.582V35.2024H183.317V42.0631C184.272 40.924 185.642 40.3099 187.081 40.3099C189.794 40.3099 192.094 42.2258 192.094 45.4856H192.088Z" fill="#162120"/>
<path d="M66.3481 41.3755V35.2076H63.6133V52.3044H66.3481V51.4645C67.2877 52.0681 68.4268 52.4146 69.6971 52.4146C70.5265 52.4146 71.2982 52.2624 72.0016 51.9894C74.1642 51.0393 75.5815 48.9291 75.5815 46.42C75.5815 43.9108 74.159 41.7901 71.9911 40.8453C71.2929 40.5776 70.5265 40.4253 69.7024 40.4253C68.4321 40.4253 67.293 40.777 66.3534 41.3755M69.3769 49.9999C68.0121 49.9999 66.9203 49.2651 66.3481 48.189C66.0699 47.664 65.9124 47.0604 65.9124 46.42C65.9124 45.7796 66.0699 45.1759 66.3481 44.651C66.9203 43.5749 68.0121 42.84 69.3769 42.84C71.3821 42.84 72.8414 44.4568 72.8414 46.42C72.8414 48.3832 71.3821 49.9999 69.3769 49.9999Z" fill="#162120"/>
<path d="M82.8281 46.4199C82.8281 43.0027 85.4265 40.3098 89.0275 40.3098C92.6284 40.3098 95.2268 42.9974 95.2268 46.4199C95.2268 49.8424 92.6074 52.5301 89.0275 52.5301C85.4475 52.5301 82.8281 49.8424 82.8281 46.4199ZM89.0275 49.9999C91.0327 49.9999 92.492 48.3832 92.492 46.4199C92.492 44.4567 91.0327 42.84 89.0275 42.84C87.0223 42.84 85.563 44.4567 85.563 46.4199C85.563 48.3832 87.0013 49.9999 89.0275 49.9999Z" fill="#162120"/>
<path d="M96.5898 46.4199C96.5898 43.0027 99.1882 40.3098 102.789 40.3098C106.39 40.3098 108.989 42.9974 108.989 46.4199C108.989 49.8424 106.369 52.5301 102.789 52.5301C99.2092 52.5301 96.5898 49.8424 96.5898 46.4199ZM102.794 49.9999C104.8 49.9999 106.259 48.3832 106.259 46.4199C106.259 44.4567 104.8 42.84 102.794 42.84C100.789 42.84 99.3299 44.4567 99.3299 46.4199C99.3299 48.3832 100.768 49.9999 102.794 49.9999Z" fill="#162120"/>
<path d="M36.7759 26.137C26.3562 26.137 17.9102 34.583 17.9102 45.0027C17.9102 55.4224 26.3562 63.8684 36.7759 63.8684C47.1956 63.8684 55.6416 55.4224 55.6416 45.0027C55.6416 34.583 47.1904 26.137 36.7759 26.137ZM31.9204 35.2024H34.5607V38.9976C33.0017 39.6222 31.9204 40.7928 31.9204 40.7928V35.2024ZM37.915 52.2991C36.6447 52.2991 35.5056 51.9474 34.566 51.349V52.2991H31.9204V46.2363H31.9256C31.9256 42.5723 35.1329 40.0737 38.6289 40.5356L37.7575 42.945C35.8783 43.0237 34.5607 44.5513 34.5607 46.3937C34.5607 48.2362 35.9465 49.853 37.9097 49.853C39.8729 49.853 41.2587 48.2887 41.2587 46.3937C41.2587 45.1444 40.6446 44.0421 39.6682 43.4332L40.5921 41.0815C42.5973 42.0316 43.8991 44.0263 43.8991 46.3937C43.8991 49.7008 41.369 52.2991 37.9097 52.2991H37.915Z" fill="#162120"/>
</svg>
