<svg width="210" height="90" viewBox="0 0 210 90" fill="none" xmlns="http://www.w3.org/2000/svg">
<path fill-rule="evenodd" clip-rule="evenodd" d="M51.5912 54.4794C53.8613 52.1348 55 48.7865 55 44.4494C55 40.412 53.9197 37.3333 51.7592 35.1985C49.5985 33.0712 46.5328 32 42.562 32H34V58H42.0073C46.1241 58 49.3212 56.8315 51.5912 54.4794ZM46.7153 39.3933C47.6127 40.5462 48.0579 42.3127 48.0583 44.6929C48.0579 47.2454 47.5834 49.1392 46.635 50.3745C45.6862 51.6105 44.1971 52.2322 42.1678 52.2322H40.6788V37.6704H42.6277C44.46 37.6704 45.8175 38.2472 46.7153 39.3933Z" fill="#162120"/>
<path d="M171.5 51C169.569 51 168 52.5687 168 54.5C168 56.4313 169.569 58 171.5 58C173.431 58 175 56.4313 175 54.5C175 52.5687 173.431 51 171.5 51Z" fill="#162120"/>
<path d="M85 32H78V58H85V32Z" fill="#162120"/>
<path fill-rule="evenodd" clip-rule="evenodd" d="M103.486 55.3517C105.164 53.5837 106 51.1145 106 47.959V47.9515C106 45.9448 105.609 44.1843 104.833 42.6774C104.05 41.1705 102.944 40.0142 101.513 39.2085C100.083 38.4028 98.4271 38 96.5602 38C93.5416 38 91.1854 38.8728 89.5143 40.6184C87.8356 42.364 87 44.878 87 47.959C87 51.0399 87.8506 53.4868 89.5594 55.2921C91.2682 57.0974 93.4437 58 96.4548 58C99.4659 58 101.815 57.1197 103.486 55.3517ZM94.3245 51.7411C93.8883 50.8765 93.6699 49.6095 93.6696 47.9552C93.6699 46.2934 93.8883 45.049 94.3245 44.2141C94.7611 43.3786 95.4612 42.9608 96.4926 42.9608C97.5238 42.9608 98.2465 43.3786 98.6755 44.2216C99.1046 45.0571 99.3154 46.2954 99.3154 47.9515C99.3154 49.6076 99.1046 50.8758 98.683 51.7411C98.2615 52.614 97.554 53.0466 96.5226 53.0466C95.4913 53.0466 94.7611 52.614 94.3245 51.7411Z" fill="#162120"/>
<path d="M115 39H108V58H115V39Z" fill="#162120"/>
<path d="M108 32H115V36H108V32Z" fill="#162120"/>
<path d="M127.796 52.8811C128.692 52.8811 129.755 52.6636 131 52.2358V56.9559C130.104 57.3329 129.254 57.6012 128.449 57.7607C127.644 57.9202 126.695 58 125.61 58C123.385 58 121.783 57.4635 120.796 56.3976C119.817 55.3318 119.323 53.6932 119.323 51.489V43.7526H117V38.902H119.323V34.1093L125.997 33V38.902H130.226V43.7526H125.997V51.0612C125.997 52.2793 126.597 52.8811 127.788 52.8811H127.796Z" fill="#162120"/>
<path d="M146 52.2358C144.844 52.6636 143.857 52.8811 143.025 52.8811H143.018C141.911 52.8811 141.354 52.2793 141.354 51.0612V43.7526H145.281V38.902H141.354V33L135.157 34.0368V38.902H133V43.7526H135.157V51.489C135.157 53.6932 135.616 55.3318 136.525 56.3976C137.441 57.4635 138.929 58 140.995 58C142.003 58 142.884 57.9202 143.631 57.7607C144.379 57.6012 145.168 57.3329 146 56.9559V52.2358Z" fill="#162120"/>
<path fill-rule="evenodd" clip-rule="evenodd" d="M163.707 40.2753C162.18 38.7609 160.005 38 157.203 38C154.253 38 151.982 38.8728 150.389 40.6184C148.796 42.364 148 44.8631 148 48.1305C148 51.398 148.863 53.7255 150.574 55.4338C152.292 57.1421 154.703 58 157.807 58C159.297 58 160.58 57.8956 161.657 57.6941C162.726 57.4927 163.758 57.1272 164.761 56.5975L163.773 52.2484C163.043 52.5468 162.35 52.7781 161.694 52.9347C160.75 53.1585 159.71 53.2704 158.574 53.2704C157.336 53.2704 156.355 52.9646 155.639 52.3529C154.924 51.7411 154.541 50.8907 154.497 49.809H166V46.8474C166 43.9978 165.233 41.812 163.707 40.2902V40.2753ZM154.629 45.6166C154.718 44.5573 155.013 43.7814 155.529 43.2891C156.038 42.7967 156.672 42.5505 157.431 42.5505C158.257 42.5505 158.914 42.8266 159.4 43.386C159.887 43.9455 160.145 44.6841 160.167 45.6166H154.629Z" fill="#162120"/>
<path fill-rule="evenodd" clip-rule="evenodd" d="M66.7141 38C69.6796 38 71.9758 38.7609 73.5872 40.2753L73.5793 40.2902C75.1906 41.812 76 43.9978 76 46.8474V49.809H63.8574C63.9041 50.8907 64.309 51.7411 65.064 52.3529C65.8188 52.9646 66.8542 53.2704 68.1617 53.2704C69.3527 53.2704 70.4502 53.1585 71.4543 52.9347C72.1471 52.7781 72.8787 52.5468 73.6493 52.2484L74.6923 56.5975C73.6338 57.1272 72.5439 57.4927 71.4154 57.6941C70.2791 57.8956 68.9246 58 67.3523 58C64.0754 58 61.5302 57.1421 59.7166 55.4338C57.903 53.7255 57 51.398 57 48.1305C57 44.8631 57.8406 42.364 59.5219 40.6184C61.2032 38.8728 63.6006 38 66.7141 38ZM64.9471 43.2891C64.4023 43.7814 64.0909 44.5573 63.9976 45.6166H69.8431C69.8197 44.6841 69.5472 43.9455 69.0336 43.386C68.5121 42.8266 67.8193 42.5505 66.9553 42.5505C66.1536 42.5505 65.4843 42.7967 64.9471 43.2891Z" fill="#162120"/>
</svg>
