<svg width="210" height="90" viewBox="0 0 210 90" fill="none" xmlns="http://www.w3.org/2000/svg">
<path d="M99.1312 14.3213L43 34.8249L99.1312 24.9114V14.3213Z" fill="#162120"/>
<path d="M97.8117 59.6593C97.8117 58.6107 97.1009 58.1368 96.6949 57.9678C97.2024 57.697 97.5408 57.0879 97.5408 56.4791C97.5408 55.2273 96.6949 54.5168 95.2062 54.5168H92.026V62.0618H95.2064C96.8305 62.0956 97.8117 61.1821 97.8117 59.6593ZM95.2064 60.8097H93.4132V58.6782H95.2064C95.9508 58.6782 96.3568 59.0503 96.3568 59.7609C96.3568 60.4037 95.917 60.8097 95.2064 60.8097ZM95.1726 57.4263H93.4132V55.8022H95.1049C95.7816 55.8022 96.0861 56.0729 96.0861 56.6143C96.12 56.9864 95.9508 57.4263 95.1726 57.4263ZM98.7929 59.6932V56.5804H100.146V59.6257C100.146 60.5393 100.485 60.9791 101.161 60.9791C101.838 60.9791 102.176 60.5393 102.176 59.6257V56.5804H103.53V62.0954H102.176V61.6556C101.838 62.0278 101.398 62.2308 100.857 62.2308C99.0635 62.1971 98.7929 60.6405 98.7929 59.6932ZM118.214 62.0956V56.5806H119.567V57.0545C119.905 56.6821 120.379 56.4791 120.954 56.4791C122.274 56.4791 122.984 57.3591 122.984 58.9829V62.0956H121.631V59.0503C121.631 58.1368 121.326 57.697 120.65 57.697C119.973 57.697 119.601 58.1709 119.601 59.0503V62.0956H118.214ZM106.135 62.0954H104.782V56.5804H106.135V62.0954ZM107.353 54.9564L108.706 54.2797V62.0954H107.353V54.9564ZM113.037 56.9528C112.699 56.6145 112.293 56.4451 111.819 56.4451C110.499 56.4451 109.654 57.5278 109.654 59.2533C109.654 61.0806 110.466 62.1971 111.785 62.1971C112.259 62.1971 112.665 62.0278 113.037 61.6558V62.0618H114.391V54.2461L113.037 54.9228V56.9528ZM112.09 60.9451C111.616 60.9451 111.041 60.6405 111.041 59.2533C111.041 57.9678 111.582 57.7308 112.056 57.7308C112.563 57.7308 112.868 58.0353 113.037 58.2721V60.4375C112.834 60.6744 112.597 60.9451 112.09 60.9451ZM142.71 56.4451C142.27 56.4451 141.83 56.6483 141.492 56.9528V54.415L140.138 55.0919V62.0618H141.492V61.6558C141.83 61.9941 142.27 62.1971 142.744 62.1971C144.097 62.1971 144.875 61.1144 144.875 59.2533C144.875 57.5278 144.063 56.4451 142.71 56.4451ZM142.473 57.697C142.98 57.697 143.488 58.103 143.488 59.2197C143.488 60.3699 143.15 60.9112 142.473 60.9112C141.965 60.9112 141.627 60.5729 141.492 60.4037V58.2383C141.729 57.9 142.067 57.697 142.473 57.697ZM127.248 56.9528C126.909 56.6145 126.503 56.4451 126.03 56.4451C124.71 56.4451 123.864 57.5278 123.864 59.2533C123.864 61.0806 124.676 62.1971 125.996 62.1971C126.47 62.1971 126.909 62.0278 127.248 61.6558V61.7911C127.248 62.4002 127.248 63.2122 125.488 63.246H125.421L125.894 64.3287H125.928C127.721 64.2949 128.601 63.4152 128.601 61.5881V56.5804H127.248V56.9528ZM127.248 58.2383V60.4037C127.045 60.6744 126.774 60.9451 126.266 60.9451C125.792 60.9451 125.251 60.6405 125.251 59.2533C125.251 57.9678 125.792 57.7308 126.266 57.7308C126.774 57.697 127.078 58.0015 127.248 58.2383ZM132.83 57.9338C133.27 57.697 133.676 57.5616 134.251 57.5616C134.894 57.5616 135.233 57.8323 135.233 58.3398V58.7122C134.928 58.5428 134.454 58.4413 134.049 58.4413C133.033 58.4413 131.849 58.9152 131.849 60.2345C131.849 61.6556 132.966 62.1969 133.88 62.1969C134.252 62.1969 134.827 62.0616 135.199 61.6215V62.0614H136.552V58.3396C136.552 57.1556 135.707 56.411 134.319 56.411C133.575 56.411 132.898 56.5802 132.255 56.9524L132.83 57.9338ZM133.236 60.2684C133.236 59.7947 133.575 59.4902 134.184 59.4902C134.59 59.4902 134.928 59.5578 135.266 59.7609V60.5052C135.097 60.8097 134.691 61.0806 134.184 61.0806C133.575 61.0806 133.236 60.7759 133.236 60.2684ZM149.274 60.4714C149.037 60.7082 148.698 60.9453 148.191 60.9453C147.92 60.9453 147.04 60.8438 146.973 59.7272H150.356V59.3212C150.356 57.5618 149.443 56.4451 148.055 56.4451C146.634 56.4451 145.586 57.6633 145.586 59.3212C145.586 61.0468 146.601 62.1971 148.191 62.1971C148.901 62.1971 149.612 61.9263 150.119 61.3172L149.274 60.4714ZM146.973 58.7458C147.007 58.0691 147.413 57.5955 147.988 57.5955C148.699 57.5955 149.003 58.1709 149.037 58.7458H146.973ZM162.402 60.4714C162.165 60.7082 161.826 60.9453 161.319 60.9453C161.048 60.9453 160.168 60.8438 160.101 59.7272H163.484V59.3212C163.484 57.5618 162.57 56.4451 161.183 56.4451C159.762 56.4451 158.714 57.6633 158.714 59.3212C158.714 61.0468 159.729 62.1971 161.319 62.1971C162.029 62.1971 162.74 61.9263 163.281 61.3172L162.402 60.4714ZM160.101 58.7458C160.134 58.0691 160.54 57.5955 161.116 57.5955C161.826 57.5955 162.131 58.1709 162.164 58.7458H160.101ZM156.819 60.1669C156.819 60.6408 156.988 60.9112 157.394 60.9112C157.665 60.9112 157.969 60.8097 158.206 60.6744L158.037 61.9601C157.732 62.1293 157.326 62.2308 156.886 62.2308C155.804 62.2308 155.432 61.3172 155.432 60.5393V57.8663H154.62V56.5806H155.465V55.1596L156.819 54.4829V56.5804H158.07V57.8661H156.819V60.1669ZM154.18 61.9601C153.875 62.1293 153.469 62.2308 153.029 62.2308C151.947 62.2308 151.574 61.3172 151.574 60.5393V57.8663H150.729V56.5806H151.574V55.1596L152.928 54.4829V56.5804H154.078V57.8661H152.928V60.2007C152.928 60.6744 153.097 60.9451 153.503 60.9451C153.774 60.9451 154.078 60.8436 154.315 60.7082L154.18 61.9601ZM167.612 58.103C167.35 57.9028 167.028 57.7957 166.698 57.7985C166.022 57.7985 165.717 58.2045 165.717 59.0842V62.0616H164.364V56.5468H165.717V57.0205C166.055 56.6145 166.461 56.4115 166.935 56.4115C167.307 56.4115 167.713 56.5466 167.95 56.7498L167.612 58.103ZM106.135 55.7686H104.782V54.4152H106.135V55.7686ZM115.609 56.5804H116.962V62.0954H115.609V56.5804ZM116.962 55.7686H115.609V54.4152H116.962V55.7686ZM154.349 66.5954C154.011 66.2571 153.605 66.0879 153.131 66.0879C151.811 66.0879 150.965 67.1706 150.965 68.8961C150.965 70.7232 151.777 71.8397 153.097 71.8397C153.571 71.8397 153.977 71.6705 154.349 71.2986V71.7046H155.702V63.8886L154.349 64.5656V66.5954ZM153.401 70.5878C152.928 70.5878 152.353 70.2833 152.353 68.8964C152.353 67.6106 152.894 67.3738 153.368 67.3738C153.875 67.3738 154.18 67.6783 154.349 67.9149V70.0803C154.146 70.2833 153.909 70.5878 153.401 70.5878ZM108.131 67.7458C107.869 67.5456 107.547 67.4384 107.217 67.4413C106.541 67.4413 106.236 67.8473 106.236 68.7267V71.7044H104.883V66.1894H106.236V66.6631C106.574 66.2571 106.98 66.054 107.454 66.054C107.826 66.054 108.232 66.1894 108.469 66.3924L108.131 67.7458ZM97.4054 66.1894H98.7588L97.2024 71.7044H96.0185L95.4094 69.4037C95.3079 68.9976 95.1726 68.5237 95.1049 68.2194C95.037 68.4563 94.9019 69.133 94.8004 69.4713L94.1914 71.7046H93.041L91.4847 66.1896H92.8716L93.3794 68.2535C93.447 68.5918 93.5824 69.2009 93.6501 69.6069C93.7177 69.2009 93.8869 68.5918 93.9884 68.2197L94.5636 66.1896H95.714L96.2891 68.2197C96.3906 68.5921 96.526 69.167 96.6275 69.6069C96.6951 69.2685 96.7967 68.727 96.932 68.2197L97.4054 66.1894ZM101.533 66.0879C100.079 66.0879 99.0299 67.3059 99.0299 68.9638C99.0299 70.6217 100.079 71.8397 101.533 71.8397C102.988 71.8397 104.037 70.6217 104.037 68.9638C104.037 67.2723 102.988 66.0879 101.533 66.0879ZM101.533 70.5542C100.857 70.5542 100.417 69.9114 100.417 68.964C100.417 67.9828 100.857 67.374 101.533 67.374C102.21 67.374 102.65 68.0167 102.65 68.964C102.65 69.9114 102.21 70.5542 101.533 70.5542ZM147.65 67.7458C147.387 67.5456 147.066 67.4384 146.736 67.4413C146.059 67.4413 145.755 67.8473 145.755 68.7267V71.7044H144.402V66.1894H145.755V66.6631C146.093 66.2571 146.499 66.054 146.973 66.054C147.345 66.054 147.751 66.1894 147.988 66.3924L147.65 67.7458ZM136.958 66.1894H138.311L136.755 71.7044H135.571L134.962 69.4037C134.86 68.9976 134.725 68.5237 134.657 68.2194C134.59 68.4563 134.454 69.133 134.353 69.4713L133.744 71.7046H132.56V71.6708L131.003 66.1896H132.39L132.898 68.2535C132.966 68.5918 133.101 69.2009 133.169 69.6069C133.236 69.2009 133.405 68.5918 133.507 68.2197L134.082 66.1896H135.233L135.808 68.2197C135.909 68.5921 136.045 69.167 136.146 69.6069C136.214 69.2685 136.315 68.727 136.451 68.2197L136.958 66.1894ZM141.052 66.0879C139.597 66.0879 138.548 67.3059 138.548 68.9638C138.548 70.6217 139.597 71.8397 141.052 71.8397C142.507 71.8397 143.556 70.6217 143.556 68.9638C143.556 67.3059 142.507 66.0879 141.052 66.0879ZM141.052 70.5542C140.375 70.5542 139.935 69.9452 139.935 68.964C139.935 67.9828 140.375 67.374 141.052 67.374C141.729 67.374 142.169 68.0167 142.169 68.964C142.169 69.9114 141.729 70.5542 141.052 70.5542ZM112.191 68.0164L113.883 71.7046H112.394L111.244 69.133L110.533 70.0467V71.7046H109.18V64.5992L110.533 63.9225V68.3209C110.697 68.0914 110.866 67.8657 111.041 67.6443L112.124 66.2232H113.68L112.191 68.0164ZM118.653 71.7046H117.3V66.1894H118.653V66.6631C118.992 66.2909 119.465 66.0879 120.041 66.0879C121.36 66.0879 122.071 66.9678 122.071 68.5916V71.7044H120.717V68.6591C120.717 67.7455 120.413 67.3057 119.736 67.3057C119.059 67.3057 118.687 67.7796 118.687 68.6591V71.7044L118.653 71.7046ZM126.334 66.5954C125.996 66.2571 125.59 66.0879 125.116 66.0879C123.796 66.0879 122.951 67.1706 122.951 68.8961C122.951 70.7232 123.763 71.8397 125.082 71.8397C125.556 71.8397 125.996 71.6705 126.334 71.2986V71.4337C126.334 72.0427 126.334 72.8548 124.575 72.8886H124.507L124.981 73.9713H125.015C126.808 73.9375 127.687 73.0575 127.687 71.2305V66.223H126.334V66.5954ZM126.334 67.8813V70.0467C126.131 70.3174 125.86 70.5878 125.353 70.5878C124.879 70.5878 124.338 70.2833 124.338 68.8964C124.338 67.6106 124.879 67.3738 125.353 67.3738C125.86 67.3397 126.165 67.6443 126.334 67.8813ZM114.695 66.1894H116.048V71.7046H114.695V66.1894ZM116.048 65.4114H114.695V64.058H116.048V65.4114ZM148.665 64.5992L150.018 63.9225V71.7046H148.665V64.5992ZM51.9999 60.5052H62.2515V54.5504H51.9999V49.8812H63.3681L59.6127 43.3173H43.5075V71.7046H66.2104V65.1744H51.9999V60.5052ZM81.3343 43.3173L76.5299 52.588L71.7252 43.3173H62.2854L72.1988 60.5052V71.7046H80.6913V60.5052L90.6045 43.3173H81.3343Z" fill="#162120"/>
</svg>
