<?xml version="1.0" encoding="UTF-8"?>
<svg width="210" height="90" fill="none" version="1.1" viewBox="0 0 210 90" xmlns="http://www.w3.org/2000/svg">
    <g id="Vector">
        <g transform="matrix(1.2524 0 0 1.2524 -51.707 -13.624)" fill="#162120">
            <path
                d="m70.148 52.986c-1.1644 0.0146-2.3198-0.203-3.3969-0.64-1.0772-0.4369-2.054-1.0841-2.872-1.9029-0.8437-0.784-1.5133-1.7326-1.9662-2.7858s-0.6793-2.1878-0.6648-3.332c-0.0139-1.1441 0.2127-2.2786 0.6656-3.3317s1.1222-2.0018 1.9654-2.7861c0.814-0.8273 1.789-1.4832 2.8663-1.9282 1.0774-0.4451 2.2348-0.6702 3.4026-0.6616 1.1126-0.0147 2.2172 0.1893 3.2493 0.6001 1.0322 0.4108 1.9714 1.0201 2.7631 1.7926l-1.6907 1.6984c-1.1578-1.1054-2.7118-1.7127-4.3217-1.689-0.8352-0.0101-1.6634 0.1515-2.4319 0.4745-0.7685 0.3231-1.4606 0.8006-2.0323 1.4021-0.5942 0.5823-1.0629 1.2774-1.3779 2.0434-0.3151 0.7659-0.4699 1.587-0.4553 2.4136-7e-3 0.8173 0.1516 1.6276 0.4665 2.3834 0.3148 0.7558 0.7795 1.4417 1.3667 2.0174 1.1762 1.1579 2.7635 1.8167 4.4239 1.8359 1.6605 0.0193 3.263-0.6024 4.4665-1.7327 0.745-0.8061 1.2021-1.8311 1.3012-2.9182h-5.6989v-2.4021h8.064c0.0792 0.4838 0.111 0.974 0.095 1.4638 0.0501 1.0137-0.1083 2.027-0.4659 2.9786-0.3575 0.9515-0.9067 1.8215-1.6142 2.5575-0.7868 0.8091-1.7373 1.4454-2.7896 1.8674s-2.1828 0.6201-3.3178 0.5816zm18.75-1.5952c-1.0823 1.0248-2.5234 1.597-4.0226 1.597-1.4991 0-2.9403-0.5722-4.0225-1.597-0.5386-0.5159-0.9629-1.1368-1.2457-1.8233-0.2829-0.6865-0.4182-1.4236-0.3975-2.1645-0.0202-0.7409 0.1154-1.4778 0.3983-2.1642 0.2828-0.6864 0.7067-1.3074 1.2449-1.8237 1.0834-1.0226 2.5241-1.5933 4.0225-1.5933 1.4985 0 2.9392 0.5707 4.0226 1.5933 0.5381 0.5163 0.9621 1.1373 1.2449 1.8237s0.4184 1.4233 0.3983 2.1642c0.0195 0.7416-0.1173 1.4791-0.4019 2.1656-0.2845 0.6865-0.7105 1.3071-1.2508 1.8222zm-6.2689-1.567c0.2879 0.3037 0.6357 0.5458 1.0221 0.7113s0.8031 0.2509 1.2242 0.2509c0.4212 0 0.8379-0.0854 1.2242-0.2509 0.3864-0.1655 0.7343-0.4076 1.0222-0.7113 0.3139-0.3204 0.5596-0.6997 0.7227-1.1155 0.1632-0.4158 0.2404-0.8596 0.2271-1.3053 0.014-0.4472-0.0628-0.8927-0.226-1.3101-0.1631-0.4174-0.4092-0.7983-0.7238-1.1202-0.2917-0.3005-0.6419-0.5397-1.0296-0.7031s-0.8048-0.2476-1.2263-0.2476c-0.4214 0-0.8386 0.0842-1.2262 0.2476-0.3877 0.1634-0.7379 0.4026-1.0296 0.7031-0.3146 0.3219-0.5607 0.7028-0.7239 1.1202-0.1631 0.4174-0.2399 0.8629-0.2259 1.3101-0.012 0.4463 0.0667 0.8906 0.2315 1.3064 0.1647 0.4158 0.4122 0.7947 0.7278 1.1144zm18.636 1.567c-1.082 1.0248-2.5234 1.597-4.0225 1.597s-2.9403-0.5722-4.0225-1.597c-0.5387-0.5159-0.9629-1.1368-1.2458-1.8233s-0.4182-1.4236-0.3974-2.1645c-0.0202-0.7409 0.1154-1.4778 0.3982-2.1642 0.2829-0.6864 0.7068-1.3074 1.245-1.8237 1.0822-1.0248 2.5234-1.5969 4.0225-1.5969s2.9405 0.5721 4.0225 1.5969c0.538 0.5163 0.962 1.1373 1.245 1.8237s0.418 1.4233 0.398 2.1642c0.021 0.7409-0.114 1.478-0.397 2.1645s-0.707 1.3074-1.246 1.8233zm-6.2689-1.567c0.2879 0.3037 0.6358 0.5458 1.0222 0.7113s0.8031 0.2509 1.2242 0.2509 0.8378-0.0854 1.2242-0.2509 0.7343-0.4076 1.0221-0.7113c0.3139-0.3204 0.5592-0.6997 0.7232-1.1155 0.163-0.4158 0.24-0.8596 0.227-1.3053 0.014-0.4472-0.063-0.8927-0.226-1.3101s-0.4096-0.7983-0.7242-1.1202c-0.2916-0.3005-0.6419-0.5397-1.0295-0.7031-0.3877-0.1634-0.8048-0.2476-1.2263-0.2476s-0.8386 0.0842-1.2263 0.2476-0.7379 0.4026-1.0295 0.7031c-0.3146 0.3219-0.5608 0.7028-0.7239 1.1202s-0.24 0.8629-0.226 1.3101c-0.012 0.4463 0.0667 0.8906 0.2315 1.3064s0.4123 0.7947 0.7278 1.1144zm14.4 8.1728c-1.139 0.0358-2.255-0.3153-3.163-0.9946-0.807-0.5988-1.442-1.3942-1.843-2.3083l2.166-0.8914c0.235 0.5463 0.604 1.0266 1.073 1.3981 0.502 0.3997 1.132 0.6093 1.776 0.5911 0.409 0.0246 0.818-0.0381 1.2-0.1839 0.382-0.1457 0.727-0.371 1.013-0.6605 0.572-0.682 0.855-1.5564 0.788-2.4397v-0.8069h-0.085c-0.362 0.4247-0.819 0.7602-1.335 0.9801s-1.077 0.318-1.638 0.2866c-0.713 0.0021-1.419-0.1419-2.073-0.4229s-1.242-0.6929-1.726-1.2098c-0.526-0.5127-0.941-1.1255-1.22-1.8013-0.28-0.6757-0.417-1.4004-0.404-2.1302-0.014-0.7341 0.124-1.4632 0.403-2.1436s0.694-1.2982 1.221-1.8161c0.483-0.519 1.071-0.933 1.725-1.2157s1.36-0.4279 2.074-0.4264c0.604-1e-3 1.201 0.1304 1.748 0.3847 0.473 0.204 0.894 0.5084 1.234 0.8914h0.086v-0.8914h2.356v9.9931c0.062 0.7905-0.04 1.5852-0.3 2.3355-0.26 0.7502-0.672 1.4402-1.211 2.0277-0.513 0.4852-1.12 0.8639-1.784 1.1137-0.664 0.2497-1.371 0.3656-2.081 0.3407zm0.17-7.2063c0.406 0.0088 0.809-0.0707 1.18-0.2329 0.371-0.1621 0.701-0.403 0.967-0.7054 0.586-0.6635 0.895-1.5221 0.864-2.4021 0.036-0.8949-0.273-1.7698-0.864-2.449-0.266-0.303-0.596-0.5442-0.967-0.7064s-0.774-0.2414-1.18-0.2319c-0.416-0.0085-0.83 0.0708-1.213 0.2326s-0.727 0.4024-1.009 0.7057c-0.628 0.6548-0.97 1.5282-0.95 2.4302-0.01 0.4425 0.069 0.8825 0.232 1.2947s0.407 0.7886 0.718 1.1074c0.28 0.3063 0.624 0.55 1.007 0.715 0.383 0.1651 0.797 0.2476 1.215 0.2421zm9.394-14.544v16.402h-2.479v-16.402zm6.801 16.74c-0.742 0.0188-1.481-0.114-2.169-0.3901-0.688-0.276-1.311-0.6895-1.83-1.2145-0.526-0.5211-0.94-1.1424-1.216-1.8263s-0.408-1.4161-0.389-2.1521c-0.028-0.7378 0.095-1.4737 0.361-2.1636 0.266-0.69 0.67-1.32 1.187-1.8524 0.488-0.5082 1.078-0.91 1.732-1.1799 0.655-0.2698 1.359-0.4017 2.068-0.3871 0.651-0.0068 1.298 0.1177 1.899 0.3659 0.542 0.2161 1.036 0.5348 1.453 0.9383 0.359 0.3421 0.678 0.723 0.95 1.1354 0.221 0.3482 0.408 0.7157 0.561 1.0978l0.256 0.6381-7.598 3.0871c0.229 0.5216 0.614 0.9622 1.102 1.2637s1.058 0.4497 1.633 0.4252c0.56 0.0015 1.11-0.1403 1.598-0.4116 0.488-0.2714 0.896-0.663 1.185-1.1366l1.9 1.2667c-0.485 0.6852-1.105 1.2662-1.824 1.7078-0.854 0.5333-1.848 0.8073-2.859 0.7882zm-3.172-5.7519 5.053-2.0737c-0.156-0.3656-0.434-0.6672-0.789-0.8539-0.396-0.2213-0.845-0.3346-1.301-0.3284-0.773 0.0198-1.507 0.3401-2.042 0.8914-0.32 0.3028-0.569 0.6718-0.728 1.0805-0.16 0.4088-0.225 0.8472-0.193 1.2841z" />
            <path
                d="m143.61 52.985c-1.054 0.018-2.101-0.1746-3.078-0.5664-0.977-0.3917-1.864-0.9745-2.607-1.7133-0.744-0.7387-1.328-1.6183-1.719-2.5858s-0.58-2.0031-0.555-3.0445c-0.025-1.0414 0.164-2.0769 0.555-3.0444 0.391-0.9676 0.975-1.8471 1.719-2.5859 0.743-0.7388 1.63-1.3215 2.607-1.7133 0.977-0.3917 2.024-0.5844 3.078-0.5664 1.067-0.033 2.128 0.1727 3.104 0.6017 0.975 0.4289 1.84 1.07 2.529 1.8755l-1.368 1.3136c-0.506-0.6288-1.155-1.1307-1.894-1.4649-0.74-0.3343-1.549-0.4914-2.361-0.4586-0.782-0.0175-1.56 0.1215-2.286 0.4086-0.727 0.287-1.387 0.7161-1.941 1.2616-0.576 0.5723-1.026 1.2563-1.322 2.0087-0.296 0.7525-0.431 1.5573-0.397 2.3638-0.034 0.8066 0.101 1.6113 0.397 2.3638s0.746 1.4364 1.322 2.0088c0.554 0.5454 1.214 0.9746 1.941 1.2616 0.726 0.287 1.504 0.426 2.286 0.4086 0.908 0.01 1.806-0.1821 2.628-0.5623 0.822-0.3801 1.547-0.9384 2.121-1.6334l1.368 1.3512c-0.716 0.846-1.615 1.5225-2.631 1.9799-1.095 0.4994-2.29 0.7495-3.496 0.7318z" />
            <path d="m153.41 52.649h-1.966v-15.154h1.966z" />
            <path
                d="m156.62 43.527c1.03-1.0107 2.423-1.578 3.875-1.578s2.845 0.5673 3.875 1.578c0.504 0.5255 0.898 1.1442 1.158 1.8206 0.261 0.6763 0.384 1.3969 0.362 2.1204 0.022 0.7234-0.101 1.444-0.362 2.1204-0.26 0.6763-0.654 1.295-1.158 1.8205-1.03 1.0108-2.423 1.578-3.875 1.578s-2.845-0.5672-3.875-1.578c-0.504-0.5255-0.898-1.1442-1.159-1.8205-0.26-0.6764-0.383-1.397-0.361-2.1204-0.022-0.7235 0.101-1.4441 0.361-2.1204 0.261-0.6764 0.655-1.2951 1.159-1.8206zm1.462 6.6621c0.31 0.3234 0.683 0.581 1.097 0.7571 0.414 0.176 0.86 0.2669 1.311 0.2669s0.897-0.0909 1.311-0.2669c0.414-0.1761 0.787-0.4337 1.097-0.7571 0.344-0.3643 0.61-0.7925 0.785-1.2597 0.174-0.4671 0.253-0.9639 0.231-1.4614 0.022-0.4975-0.057-0.9943-0.231-1.4615-0.175-0.4672-0.441-0.8954-0.785-1.2597-0.31-0.3234-0.683-0.581-1.097-0.7571-0.414-0.176-0.86-0.2668-1.311-0.2668s-0.897 0.0908-1.311 0.2668c-0.414 0.1761-0.787 0.4337-1.097 0.7571-0.343 0.3643-0.61 0.7925-0.785 1.2597-0.174 0.4672-0.253 0.964-0.231 1.4615-0.019 0.4965 0.062 0.992 0.238 1.4575s0.444 0.8918 0.788 1.2542z" />
            <path
                d="m176.78 52.648h-1.9v-1.4356h-0.057c-0.338 0.5452-0.817 0.9921-1.387 1.2949-0.591 0.3387-1.263 0.5167-1.947 0.516-0.555 0.0375-1.112-0.0493-1.628-0.254s-0.979-0.522-1.354-0.9282c-0.72-0.8991-1.081-2.0272-1.017-3.1716v-6.3805h1.967v6.024c0 1.9329 0.864 2.8994 2.593 2.8994 0.384 0.0118 0.765-0.0672 1.112-0.2304s0.649-0.4059 0.882-0.7079c0.51-0.6381 0.782-1.43 0.77-2.2426v-5.7425h1.966z" />
            <path
                d="m183.46 52.987c-0.667 0.0022-1.327-0.1385-1.934-0.4122-0.606-0.2738-1.146-0.6742-1.581-1.1736-0.985-1.0744-1.512-2.4827-1.472-3.9315-0.04-1.4489 0.487-2.8572 1.472-3.9316 0.435-0.4994 0.975-0.8998 1.581-1.1736 0.607-0.2737 1.267-0.4143 1.934-0.4122 0.747-0.0116 1.485 0.1626 2.146 0.5067 0.581 0.2889 1.073 0.7263 1.425 1.2668h0.085l-0.085-1.4357v-4.7948h1.966v15.154h-1.9v-1.4357h-0.085c-0.352 0.5405-0.844 0.9779-1.425 1.2668-0.655 0.341-1.387 0.5152-2.127 0.5067zm0.322-1.7735c0.445 0.0064 0.886-0.0806 1.293-0.2553 0.408-0.1747 0.774-0.4331 1.073-0.758 0.667-0.7513 1.009-1.7324 0.949-2.7305 0.06-0.9982-0.282-1.9793-0.949-2.7306-0.301-0.3266-0.668-0.5876-1.077-0.7662s-0.851-0.2708-1.298-0.2708-0.889 0.0922-1.298 0.2708-0.776 0.4396-1.077 0.7662c-0.331 0.3696-0.586 0.8001-0.749 1.2671-0.163 0.4669-0.231 0.9611-0.2 1.4541-0.031 0.493 0.037 0.9871 0.2 1.4541 0.163 0.4669 0.418 0.8975 0.749 1.267 0.3 0.3307 0.668 0.594 1.079 0.7721s0.856 0.2668 1.305 0.26z" />
        </g>
    </g>
</svg>