<?xml version="1.0" encoding="UTF-8"?>
<svg width="210" height="90" version="1.1" viewBox="0 0 210 90" xmlns="http://www.w3.org/2000/svg">
 <path d="m113.66 32.992c0.718 0.0039 1.408-0.2727 1.925-0.7709 0.515-0.4962 0.813-1.1754 0.831-1.8905-9e-3 -0.7249-0.302-1.4174-0.816-1.9279-0.517-0.5126-1.213-0.8036-1.94-0.8111-0.717 0.0167-1.4 0.313-1.902 0.8258-0.5 0.5108-0.778 1.1982-0.775 1.9132 6e-3 0.7051 0.29 1.3792 0.79 1.8756 0.503 0.4985 1.18 0.7804 1.887 0.7858zm18.726 2.5591h6.646v0.5242c-0.368 0.0645-0.724 0.1868-1.054 0.3623-0.608 0.2826-1.823 1.6521-2.756 3.9472-1.58 3.9879-3.24 8.6986-4.982 14.097l-0.649 2.0472c-0.284 0.9254-0.527 1.5293-0.648 1.8938-0.122 0.3644-0.285 0.9253-0.567 1.609-0.161 0.5144-0.368 1.0132-0.618 1.4905-0.325 0.604-0.933 1.8426-1.419 2.2151-0.77 0.6449-1.905 1.3695-3.322 1.2488-2.756 0-4.822-2.0472-4.863-4.469 0-1.6523 1.055-2.7393 2.634-2.7393 1.135 0 2.146 0.6142 2.146 1.8916 0 0.9274-0.93 1.8937-0.93 2.377 0 1.2486 0.729 1.8423 2.148 1.8423 1.133 0 2.059-0.7246 2.753-2.1742 0.934-1.6521 1.014-3.4637 0.243-5.4784l-5.832-15.344c-1.339-3.5435-2.352-4.7084-3.607-4.8333v-0.5244h9.196v0.5239c-1.093 0.121-1.66 0.7659-1.66 1.9326 0 0.8456 0.324 2.1353 0.931 3.7874l1.094 2.9791c1.256 3.2221 2.265 6.0412 2.797 7.8142 1.174-3.6647 2.266-6.887 3.322-9.7061 0.77-2.0944 1.135-3.5846 1.135-4.4711 0-1.5702-0.851-2.2949-2.148-2.2949l0.01-0.5486zm-63.98 19.615c-1.1738-0.2047-2.1871-1.2489-2.1871-3.464v-26.702l-6.6857 1.4495v0.5652c1.1349-0.121 2.2655 0.8841 2.2655 3.0195v21.668c0 2.0944-1.1348 3.3023-2.2655 3.464-0.1062 0.0186-0.2137 0.0316-0.3213 0.0388-0.5787 0.0396-1.1582-0.0623-1.6888-0.2968-0.8981-0.389-1.6477-1.083-2.2822-2.1188l-3.0892-4.9135c-0.6516-1.0364-1.6201-1.8345-2.7614-2.2756-1.1439-0.4428-2.3997-0.5063-3.5825-0.1811l3.4849-3.8261c2.6322-2.8988 5.0647-4.7516 7.3735-5.5172v-0.5246h-7.6658v0.5242c1.9853 0.7655 1.8638 2.4567-0.4119 5.1181l-4.9019 5.6767v-21.87l-6.6856 1.4495v0.5652c1.1348 0 2.2655 1.1258 2.2655 3.0993v21.588c0 2.377-1.0935 3.3023-2.2655 3.464v0.5241h8.881v-0.5241c-1.4581-0.2047-2.1872-1.3287-2.1872-3.464v-3.986l1.903-2.0942 4.6095 7.5297c1.0937 1.8138 2.107 2.5386 3.728 2.5386h15.426v-0.4095s-0.4407-0.0307-0.9557-0.1146zm18.405-2.5468v-9.0079c-0.0887-5.8898-2.5727-8.5716-8.2612-8.5716-1.8162-0.0141-3.5847 0.5811-5.0234 1.6907-1.4994 1.1281-2.2285 2.4179-2.2285 3.9083 0 1.4496 0.8095 2.5366 2.146 2.5366 1.4193 0 2.4326-0.8047 2.4326-1.9326 0-0.8456-0.5686-2.0144-0.5686-2.8191 0-1.4514 1.0958-2.7002 2.9988-2.7002 2.4326 0 4.1729 1.8139 4.1729 5.8407v2.4158l-2.0247 0.483c-1.0545 0.2047-1.9442 0.4096-2.6343 0.6142-0.6898 0.2047-1.5795 0.4833-2.6342 0.8844-2.107 0.8068-3.2398 1.5724-4.2138 3.0219-0.4769 0.7006-0.7311 1.529-0.7292 2.3767 0 3.3412 2.3499 4.8726 5.6331 4.8726 2.5929 0 5.3549-1.3698 6.6031-3.9472 0.0179 0.813 0.2138 1.6123 0.5747 2.3421 1.3737 2.7637 5.9235 1.13 5.9235 1.13v-0.524c-1.9918 0.3091-2.1566-2.0453-2.1668-2.6144zm-4.3253-2.7884c0 1.3286-0.4861 2.4158-1.4581 3.1814-0.931 0.7658-1.9032 1.1691-2.9165 1.1691-1.9855 0-3.283-1.2898-3.283-3.6667 0-1.1259 0.6178-2.1742 1.1348-2.778 0.4098-0.4171 0.8902-0.7582 1.419-1.0074 0.688-0.3623 1.0298-0.5486 1.4994-0.7656l1.8538-0.6837c0.9308-0.3623 1.4973-0.563 1.7404-0.6837l0.0102 5.2346zm89.515-14.28h-15.758v-10.551h15.758l-3.308 5.2758 3.308 5.2756zm-32.031 17.576c-0.97-0.9913-1.734-2.1643-2.25-3.4518s-0.772-2.6642-0.755-4.0512c-0.022-1.3805 0.233-2.7514 0.749-4.0319 0.517-1.2827 1.284-2.4496 2.256-3.4326 1.987-2.0962 4.422-3.1465 7.264-3.1465 2.799 0 5.236 1.0503 7.223 3.1465 0.986 0.9751 1.764 2.1397 2.288 3.4238 0.523 1.2817 0.78 2.6564 0.756 4.0407 0.02 1.3895-0.238 2.769-0.761 4.0565-0.524 1.2897-1.3 2.4616-2.283 3.4465-1.987 2.0472-4.424 3.1058-7.223 3.1058-2.842 0-5.277-1.0484-7.264-3.1058zm10.916-14.632c-0.801-1.558-1.854-2.471-3.09-2.7168-2.506-0.5014-4.722 2.0595-5.548 6.1316-0.353 1.8266-0.438 3.6947-0.254 5.5458 0.182 1.8527 0.7 3.6566 1.529 5.3231 0.803 1.56 1.853 2.4709 3.089 2.7165 2.507 0.5016 4.787-2.1679 5.619-6.2809 0.69-3.4373 0.34-7.6238-1.356-10.721l0.011 0.0021z" fill="#162120"/>
 <path d="m116.01 51.702v-16.151h-14.262v0.4853c1.905 0.2826 2.811 1.7117 1.946 4.0289-4.457 12.042-4.1729 11.501-4.457 12.468-0.2842-0.9275-0.9332-3.2059-1.9855-6.064-1.0526-2.8579-1.7425-4.7535-2.0267-5.5991-1.0937-3.3432-0.7291-4.5921 1.0545-4.7925v-0.5242h-9.2395v0.5242c1.3779 0.2825 2.5931 1.8525 3.6064 4.6716l1.419 3.6647c1.5591 3.9593 3.3904 9.4172 4.0019 11.278h3.0709c0.989-2.8662 4.955-14.304 5.487-15.467 0.572-1.3247 1.221-2.328 1.946-3.0219 0.351-0.374 0.777-0.669 1.25-0.8656 0.474-0.1971 0.985-0.2914 1.498-0.2767 0 0 2.226 0 2.226 2.1353v13.506c0 2.2521-1.094 3.3023-2.228 3.464v0.5241h8.833v-0.5241c-1.167-0.1617-2.14-1.208-2.14-3.464z" fill="#162120"/>
</svg>
