<svg width="210" height="90" viewBox="0 0 210 90" fill="none" xmlns="http://www.w3.org/2000/svg">
<path d="M56.3789 35.0014C58.1236 35.0014 59.8224 34.9928 61.5211 35.0186C61.6525 35.0186 61.8463 35.234 61.9047 35.3891C63.1428 38.7188 64.3684 42.0551 65.594 45.3892C66.0714 46.6858 66.5487 47.9802 67.0698 49.3953C68.8853 44.5255 70.655 39.7764 72.4288 35.0186H77.7419V55.4754H74.4194V38.7899C74.3818 38.7835 74.3464 38.777 74.3089 38.7705C73.8503 40.0607 73.3918 41.3529 72.9311 42.6431C71.4929 46.6535 70.0567 50.6638 68.6122 54.6699C68.3058 55.5164 68.2892 55.5121 67.3929 55.5099C66.9426 55.5099 66.4903 55.5099 66.0401 55.5056C66.0068 55.5056 65.9713 55.4948 65.8817 55.4798C63.8744 49.8626 61.8567 44.2175 59.839 38.5724C59.8057 38.5788 59.7723 38.5832 59.7369 38.5896V55.4798H56.381V35.0014H56.3789Z" fill="#162120"/>
<path d="M114.588 35.0229V43.3366C114.996 42.9382 115.369 42.5031 115.809 42.1606C118.65 39.9444 122.852 41.7234 123.357 45.344C123.411 45.7316 123.463 46.1236 123.465 46.5156C123.476 49.3953 123.473 52.2771 123.476 55.1567C123.476 55.245 123.467 55.3355 123.459 55.4668H120.145C120.145 55.2816 120.145 55.0921 120.145 54.9004C120.145 52.557 120.184 50.2115 120.122 47.8704C120.101 47.0691 119.961 46.2076 119.632 45.4947C119.038 44.2132 117.227 43.9698 115.965 44.8766C114.836 45.6886 114.646 46.9184 114.629 48.1913C114.602 50.4097 114.621 52.6281 114.621 54.8465V55.4711H111.303V35.0229H114.588Z" fill="#162120"/>
<path d="M174.739 41.5942H177.918V43.7501C178.395 43.1923 178.783 42.5526 179.329 42.1348C182.341 39.8259 186.533 41.8526 186.943 45.7898C186.985 46.1796 186.997 46.5738 186.997 46.9679C187.002 49.6343 186.999 52.3007 186.999 54.9671V55.5767H183.577C183.577 55.3613 183.577 55.1718 183.577 54.9822C183.577 52.6389 183.602 50.2934 183.562 47.9501C183.55 47.2479 183.433 46.5242 183.223 45.8566C182.922 44.9003 182.199 44.4544 181.232 44.4501C179.431 44.4415 178.23 45.4883 178.149 47.3362C178.047 49.658 178.08 51.9841 178.055 54.3081C178.051 54.6828 178.055 55.0576 178.055 55.4711H174.739V41.5942Z" fill="#162120"/>
<path d="M95.6802 41.5963H98.8547V43.8923C99.1924 43.3969 99.4217 42.9812 99.7218 42.6323C100.587 41.6243 101.733 41.2862 102.99 41.2797C104.42 41.2711 105.746 41.5963 106.725 42.7766C107.547 43.7674 107.903 44.9649 107.918 46.2356C107.953 49.3285 107.928 52.4235 107.928 55.5616H104.56C104.56 55.3591 104.56 55.1675 104.56 54.9758C104.547 52.598 104.533 50.218 104.52 47.8402C104.516 46.9916 104.458 46.1301 103.955 45.4344C103.684 45.0618 103.259 44.7064 102.834 44.5707C101.012 43.9806 99.2132 45.2341 99.0965 47.2285C98.9839 49.1346 99.0214 51.0515 99.0006 52.9641C98.9923 53.7869 99.0006 54.6075 99.0006 55.469H95.6843V41.5963H95.6802Z" fill="#162120"/>
<path d="M157.822 52.6518C157.822 53.4358 157.839 54.2909 157.805 55.1459C157.799 55.2945 157.595 55.525 157.447 55.5573C156.755 55.7102 156.05 55.9127 155.356 55.8954C154.487 55.8739 153.58 55.7834 152.768 55.4905C151.29 54.9585 150.825 53.6103 150.773 52.1521C150.694 49.882 150.721 47.6098 150.704 45.3375C150.704 45.1243 150.704 44.9132 150.704 44.6332H149.187C150.833 42.2382 152.396 39.9637 153.96 37.6893C153.993 37.7001 154.029 37.7109 154.062 37.7216V41.5468H157.776V44.4889H154.085C154.085 46.1732 154.081 47.7821 154.087 49.3909C154.089 50.0156 154.077 50.6466 154.145 51.2669C154.268 52.3675 154.785 52.865 155.859 52.8693C156.503 52.8715 157.147 52.7337 157.82 52.654L157.822 52.6518Z" fill="#162120"/>
<path d="M141.641 44.6957C141.18 44.659 140.788 44.6289 140.297 44.5901C141.897 42.2619 143.444 40.0111 145.08 37.6312V41.6459H149.293C148.574 42.6732 147.936 43.5972 147.275 44.5018C147.206 44.5966 146.992 44.603 146.844 44.6052C146.256 44.616 145.67 44.6095 145.062 44.6095C145.045 44.7409 145.024 44.8249 145.024 44.9089C145.024 46.9119 145.014 48.9171 145.024 50.9202C145.032 52.0811 145.52 52.8349 146.368 52.9124C146.946 52.9641 147.538 52.8801 148.123 52.8306C148.303 52.8155 148.476 52.7143 148.715 52.6303C148.715 53.5435 148.728 54.4158 148.701 55.2881C148.697 55.4065 148.505 55.581 148.369 55.6198C146.752 56.0785 145.118 56.2056 143.538 55.5271C142.206 54.9542 141.751 53.7093 141.708 52.3503C141.631 50.0285 141.658 47.7002 141.641 45.3763C141.641 45.163 141.641 44.952 141.641 44.6935V44.6957Z" fill="#162120"/>
<path d="M24 55.9644C28.8629 49.2811 33.6424 42.7098 38.424 36.1386C38.4573 36.1472 38.4928 36.1558 38.5261 36.1644C38.5261 36.9958 38.5303 37.825 38.5261 38.6564C38.5199 39.5847 38.7012 40.5797 38.4323 41.4219C38.1697 42.2446 37.4464 42.9145 36.9211 43.6468C34.0655 47.6291 31.2037 51.6094 28.3585 55.6004C28.1584 55.8804 27.9583 55.9773 27.631 55.973C26.47 55.9536 25.3069 55.9665 24.0021 55.9665L24 55.9644Z" fill="#162120"/>
<path d="M49.1899 36.1752C49.1899 37.853 49.1961 39.5287 49.1795 41.2043C49.1795 41.3788 49.0648 41.5726 48.9564 41.7234C45.6402 46.3541 42.3135 50.9805 39.0014 55.6133C38.8159 55.8717 38.6283 55.9773 38.3177 55.973C37.14 55.9536 35.9602 55.9665 34.6596 55.9665C39.5058 49.3026 44.2957 42.7206 49.0836 36.1364C49.119 36.1494 49.1544 36.1623 49.1899 36.1752Z" fill="#162120"/>
<path d="M38.524 43.16C38.524 44.2434 38.4386 45.3353 38.5449 46.4058C38.6991 47.9802 38.2489 49.2445 37.2713 50.4657C35.9602 52.1047 34.8076 53.8795 33.6007 55.6068C33.4194 55.8674 33.2318 55.9773 32.9191 55.973C31.7644 55.9557 30.6075 55.9665 29.3298 55.9665C32.4084 51.6223 35.4183 47.3771 38.4261 43.1298L38.524 43.16Z" fill="#162120"/>
<path d="M39.9894 55.9622C43.0722 51.6137 46.0779 47.3707 49.1461 43.0437C49.167 43.2526 49.1878 43.3646 49.1878 43.4766C49.1899 45.0683 49.1982 46.6621 49.1795 48.2537C49.1774 48.4842 49.0961 48.7513 48.9669 48.9365C47.4036 51.17 45.8236 53.3906 44.2415 55.609C44.1373 55.7533 43.9664 55.9428 43.8226 55.9471C42.5803 55.973 41.3359 55.9622 39.9894 55.9622Z" fill="#162120"/>
<path d="M49.169 50.5023V55.9256H45.3483C46.6157 54.1272 47.8475 52.3783 49.169 50.5023Z" fill="#162120"/>
<path fill-rule="evenodd" clip-rule="evenodd" d="M89.4082 55.4862H92.5411C92.5411 54.7846 92.5415 54.0866 92.5419 53.3913C92.543 51.3165 92.5442 49.266 92.5348 47.2156C92.5306 46.6298 92.5036 46.0332 92.4077 45.4559C92.1221 43.7437 91.2904 42.4492 89.6625 41.788C88.5286 41.3271 87.3468 41.2237 86.1503 41.2905C84.1722 41.3982 82.3984 42.0314 80.981 43.5369C81.5605 44.1335 82.1233 44.7129 82.6881 45.2944C84.1597 44.1249 85.154 43.7911 86.8548 43.9009C88.5161 44.0086 89.5979 45.2729 89.3353 46.9076C89.1447 46.9076 88.9527 46.9063 88.7597 46.9051C88.3384 46.9023 87.9124 46.8994 87.4864 46.9098C85.6563 46.9507 83.8533 47.1316 82.19 48.0297C79.6429 49.4039 79.3135 53.2075 81.6501 54.8702C83.401 56.1173 85.3228 56.2013 87.2926 55.4367C88.1618 55.1007 88.7829 54.4416 89.4082 53.705V55.4862ZM89.3268 49.335C89.1053 49.335 88.8927 49.3319 88.6863 49.3289C88.2482 49.3225 87.8382 49.3165 87.4301 49.3414C87.3925 49.3437 87.3548 49.346 87.3171 49.3483C86.3011 49.41 85.2727 49.4724 84.3723 50.0414C83.8225 50.3894 83.5522 50.9052 83.5528 51.4195C83.5521 51.9635 83.8543 52.5065 84.4495 52.8478C85.1311 53.2376 85.8585 53.2441 86.611 53.1687C88.0659 53.0223 88.9788 52.2254 89.2519 50.7586C89.3087 50.4522 89.3123 50.1357 89.316 49.8073C89.3178 49.654 89.3196 49.498 89.3268 49.3393C89.3268 49.3393 89.3269 49.3393 89.3268 49.3393L89.3269 49.3371C89.3269 49.3378 89.3269 49.3385 89.3268 49.3393C89.3268 49.3393 89.3269 49.3393 89.3268 49.3393C89.3269 49.3378 89.3268 49.3364 89.3268 49.335Z" fill="#162120"/>
<path fill-rule="evenodd" clip-rule="evenodd" d="M132.595 43.9052C134.273 43.9978 135.307 45.1953 135.096 46.843H135.102C134.963 46.8533 134.815 46.8616 134.67 46.8699L134.65 46.871C134.3 46.8887 133.95 46.9012 133.6 46.9137C132.841 46.9409 132.082 46.968 131.33 47.0476C129.908 47.1984 128.539 47.5408 127.353 48.4454C125.581 49.7959 125.341 52.809 126.894 54.4244C127.907 55.4776 129.189 55.8653 130.567 55.9019C132.326 55.9493 133.881 55.4345 134.944 53.8515C134.967 53.8166 135.001 53.7885 135.055 53.7436C135.088 53.7164 135.128 53.683 135.177 53.6382V55.4776H138.152V54.4308C138.152 53.5669 138.155 52.7026 138.159 51.8382C138.168 49.8061 138.177 47.7732 138.137 45.7424C138.1 43.8341 136.966 42.292 135.225 41.7234C132.772 40.9222 130.371 41.1139 128.107 42.4277C127.76 42.6281 127.449 42.8938 127.152 43.1468C127.025 43.2554 126.901 43.3617 126.777 43.4594C126.917 43.6097 127.053 43.7555 127.185 43.8979C127.635 44.3819 128.047 44.8259 128.461 45.2686C130.179 44.0581 130.927 43.8104 132.595 43.9052ZM135.063 49.2876C135.063 49.2875 135.064 49.2876 135.065 49.2876C135.098 50.5454 135.09 51.7257 134.048 52.5053C133.601 52.8396 133.13 53.0527 132.643 53.1582C131.934 53.313 131.192 53.2391 130.444 52.977C129.754 52.7358 129.285 52.0337 129.314 51.3918C129.349 50.6294 129.795 50.1556 130.448 49.8756C131.669 49.3508 132.951 49.3284 134.272 49.3053C134.534 49.3007 134.798 49.2961 135.063 49.2876Z" fill="#162120"/>
<path fill-rule="evenodd" clip-rule="evenodd" d="M168.561 55.4927H171.471C171.481 55.4645 171.49 55.4422 171.498 55.4238C171.512 55.3901 171.521 55.3692 171.521 55.3484C171.527 54.4111 171.538 53.4738 171.549 52.5365C171.576 50.2712 171.603 48.0063 171.569 45.7424C171.537 43.6855 170.343 42.2338 168.432 41.6372C166.597 41.0665 164.769 41.1634 162.966 41.7492C161.918 42.0895 160.982 42.6646 160.253 43.4766C160.538 43.7757 160.818 44.069 161.098 44.3619C161.385 44.6618 161.671 44.9614 161.962 45.2664C161.995 45.2398 162.031 45.211 162.068 45.1808C162.152 45.1131 162.244 45.0385 162.339 44.967C163.658 43.9784 165.124 43.6489 166.712 44.0215C168.034 44.3317 168.874 45.6692 168.515 46.8688C168.436 46.8688 168.357 46.8671 168.276 46.8654C168.102 46.8616 167.925 46.8578 167.75 46.871C167.38 46.8988 167.009 46.9226 166.639 46.9463C165.66 47.009 164.682 47.0717 163.715 47.2091C162.452 47.3879 161.257 47.8467 160.326 48.8073C158.7 50.4851 158.706 53.9936 161.493 55.3118C163.406 56.2164 166.462 56.1604 167.973 54.293C168.092 54.1465 168.208 53.9987 168.325 53.8507C168.366 53.7986 168.407 53.7464 168.448 53.6942L168.561 53.7201V55.4927ZM168.539 49.2065C168.541 49.2062 168.544 49.206 168.546 49.2057C168.557 50.6918 168.486 51.9884 167.227 52.7056C166.083 53.3583 164.847 53.4573 163.644 52.8306C162.552 52.262 162.47 50.8125 163.496 50.1297C163.904 49.8562 164.398 49.6451 164.878 49.5762C164.932 49.5683 164.987 49.5605 165.042 49.553C165.847 49.4424 166.659 49.372 167.496 49.2995C167.839 49.2698 168.186 49.2398 168.539 49.2065Z" fill="#162120"/>
</svg>
