<?xml version="1.0" encoding="UTF-8"?>
<svg width="210" height="90" fill="none" version="1.1" viewBox="0 0 210 90" xmlns="http://www.w3.org/2000/svg">
 <path d="m175.6 37.661c0.1166 0 0.2926 0 0.3509-0.17776 0.0594-0.05918 0.0594-0.11847 0.0594-0.17765 0-0.11792-0.0594-0.23705-0.176-0.29634-0.1177-0.05918-0.2343-0.05918-0.4103-0.05918h-0.1177v0.65109h0.2937m-0.176-0.94677c0.2926 0 0.4686 0 0.5863 0.05929 0.4092 0.11847 0.4092 0.53262 0.4092 0.65109v0.1771c0 0.11913-0.0594 0.29623-0.2937 0.41481 0 0-0.0583 0.05918-0.1155 0.05918l0.5258 0.94677h-0.5258l-0.4103-0.88814h-0.2937v0.88814h-0.4664v-2.3082zm0.176 3.2556c1.111 0 2.0482-0.88814 2.0482-2.0718s-0.8778-2.0717-2.0482-2.0717c-1.1121 0-2.0493 0.94732-2.0493 2.0717 0 1.1245 0.9372 2.0718 2.0493 2.0718zm-1.5796-2.0718c0-0.88803 0.7007-1.5978 1.6379-1.5978 0.8778 0 1.5796 0.70972 1.5796 1.5978 0 0.88814-0.7018 1.5985-1.5796 1.5985-0.9372 0.05918-1.6379-0.71038-1.6379-1.5985zm-14.221 13.199c-2.6917 0-4.9742-1.8348-5.676-4.3208h14.922l2.0493-3.2548h-16.971c0.7018-2.4859 2.9843-4.3207 5.676-4.3207h10.241l2.0482-3.2556h-12.524c-5.0325 0-9.0706 4.1436-9.0706 9.174 0 5.0904 4.0964 9.174 9.0706 9.174h10.768l2.0482-3.2548h-12.582m-42.72 3.2548h10.826l2.0471-3.2548h-12.581c-3.2769 0-5.9114-2.6636-5.9114-5.9192 0-3.3141 2.6345-5.9184 5.9114-5.9184h10.241l2.0482-3.2556h-12.522c-5.0336 0-9.13 4.1436-9.13 9.174 0 5.0904 4.0964 9.174 9.0706 9.174zm-66.303-3.1962h-10.124c-3.2183 0-5.8519-2.6631-5.8519-5.9186 0-3.3141 2.6336-5.9186 5.8519-5.9186h10.065c3.2768 0 5.9104 2.663 5.9104 5.9186 0 3.2554-2.6336 5.9186-5.8519 5.9186zm-10.358 3.1962h10.534c5.0324 0 9.07-4.0836 9.07-9.174 0-5.0896-4.0377-9.174-9.07-9.174h-10.534c-4.9738 0-9.07 4.1436-9.07 9.174 0 5.0904 4.0963 9.174 9.07 9.174zm36.81-5.9184c3.3939 0 6.1442-2.7816 6.1442-6.2148s-2.7502-6.2148-6.1442-6.2148h-15.274v18.348h3.5118v-15.092h11.529c1.6383 0 2.9252 1.3022 2.9252 2.9592 0 1.6577-1.2869 2.9592-2.9252 2.9592h-9.8324l10.417 9.174h5.091l-7.023-5.9777h1.5805m57.759 2.7816v-15.152h-3.5112v16.632c0 0.47333 0.176 0.88737 0.5269 1.2429s0.8184 0.53262 1.287 0.53262h15.918l2.0482-3.2554zm-42.719-3.2549h9.3047l-4.9155-8.0496-9.0714 14.501h-4.1549l11.002-17.401c0.46805-0.71027 1.2876-1.1244 2.1657-1.1244 0.87736 0 1.6383 0.41415 2.1064 1.1244l11.06 17.46h-4.0964l-1.9305-3.2554h-9.422z" fill="#162120" stroke-width="1.1"/>
</svg>
