<?xml version="1.0" ?><!DOCTYPE svg  PUBLIC '-//W3C//DTD SVG 1.1//EN'  'http://www.w3.org/Graphics/SVG/1.1/DTD/svg11.dtd'>
<svg fill="none" viewBox="0 0 40 40" width="42" height="42" xml:space="preserve" xmlns="http://www.w3.org/2000/svg" xmlns:xlink="http://www.w3.org/1999/xlink">
    <path d="M39.5 20.25C39.5 30.8815 30.8815 39.5 20.25 39.5C9.61852 39.5 1 30.8815 1 20.25C1 9.61852 9.61852 1 20.25 1C30.8815 1 39.5 9.61852 39.5 20.25Z" stroke="#162120" stroke-width="1.5" stroke-linecap="round" stroke-linejoin="round">
    </path>
    <path d="M19.7704 11.4294C19.8572 11.2279 20.1428 11.2279 20.2296 11.4294L22.0505 15.6577C22.3038 16.246 22.8584 16.6489 23.4962 16.708L28.0802 17.1332C28.2986 17.1534 28.3869 17.4251 28.2221 17.5699L24.7634 20.6083C24.2822 21.031 24.0704 21.6829 24.2113 22.3078L25.2234 26.7988C25.2717 27.0128 25.0405 27.1807 24.8519 27.0687L20.8935 24.7183C20.3427 24.3912 19.6573 24.3912 19.1065 24.7183L15.1481 27.0687C14.9594 27.1807 14.7283 27.0128 14.7766 26.7988L15.7887 22.3078C15.9296 21.6829 15.7178 21.031 15.2365 20.6083L14.7416 21.1717L15.2365 20.6083L11.7779 17.5699C11.6131 17.4251 11.7014 17.1534 11.9198 17.1332L16.5038 16.708C17.1416 16.6489 17.6962 16.246 17.9495 15.6577L19.7704 11.4294Z" stroke="#162120" stroke-width="1.5"></path>
    <path d="M20.9897 19H19V20.9897H20.9897V19Z" fill="#8EA7FF"></path>
</svg>