<svg width="40" height="41" viewBox="0 0 40 41" fill="none" xmlns="http://www.w3.org/2000/svg">
<path d="M25.0791 21.9207H21.5791V25.4207H25.0791V21.9207Z" fill="#CAF389"/>
<path d="M20.5 26.4324H17V29.9324H20.5V26.4324Z" fill="#CAF389"/>
<path d="M29.5713 26.4128H26.0713V29.9128H29.5713V26.4128Z" fill="#CAF389"/>
<path d="M29.5713 17.4285H26.0713V20.9285H29.5713V17.4285Z" fill="#CAF389"/>
<path d="M28.5545 8.42847H22.088C21.5357 8.42847 21.088 8.87618 21.088 9.42847V13.851C21.088 14.4033 20.6403 14.851 20.088 14.851H15.6455C15.0932 14.851 14.6455 15.2987 14.6455 15.851V19.9003C14.6455 20.4526 14.1978 20.9003 13.6455 20.9003H9.00012C8.44784 20.9003 8.00012 21.348 8.00012 21.9003L8 28.9906" stroke="#8EA7FF" stroke-width="1.5" stroke-miterlimit="10" stroke-linecap="square"/>
</svg>
